inDegrees=yes
name=ik_lifting_orientations
DataType=double
version=3
OpenSimVersion=4.5-2024-01-10-34fd6af
endheader
time	pelvis_tilt	pelvis_list	pelvis_rotation	pelvis_tx	pelvis_ty	pelvis_tz	hip_flexion_r	hip_adduction_r	hip_rotation_r	knee_angle_r	knee_angle_r_beta	ankle_angle_r	subtalar_angle_r	mtp_angle_r	hip_flexion_l	hip_adduction_l	hip_rotation_l	knee_angle_l	knee_angle_l_beta	ankle_angle_l	subtalar_angle_l	mtp_angle_l	lumbar_extension	lumbar_bending	lumbar_rotation	arm_flex_r	arm_add_r	arm_rot_r	elbow_flex_r	pro_sup_r	wrist_flex_r	wrist_dev_r	arm_flex_l	arm_add_l	arm_rot_l	elbow_flex_l	pro_sup_l	wrist_flex_l	wrist_dev_l
1.59	-25.39046794380278	-13.8250500533997	-123.4906553575629	0	0.9399999998679526	0	45.16876671665441	-10.09025692422935	0	59.883166664246	1.045158424811602	-5.02599991813151	0	0	45.16876671665441	-10.09025692422935	0	59.883166664246	1.045158424811602	-5.02599991813151	0	0	-14.32245346953587	11.80539161837383	35.81674901707162	-8.260583330467433	3.580741261255511	5.787116826068768	10.63096898896557	1.146660737486207	0	0	0	-13.01090395558599	0	88.87776119706811	1.146660737486207	0	0
1.6	-25.41337388804986	-13.83941293079029	-123.4396611217497	0	0.9399999998679526	0	45.16869840039288	-10.09012894004199	0	59.88320374761523	1.045159072038493	-5.025951804604672	0	0	45.16869840039288	-10.09012894004199	0	59.88320374761523	1.045159072038493	-5.025951804604672	0	0	-14.2572478206202	11.80541973002088	35.65392087940317	-8.457290805446666	3.341610453370537	5.863060750871446	11.05045479874689	1.146337999452184	0	0	0	-13.01131565912407	0	88.87807701024971	1.146337999452184	0	0
1.61	-25.42477318787526	-13.87183981680395	-123.3921003304425	0	0.9399999998679526	0	45.16866763162	-10.0900716017319	0	59.88322050828358	1.045159364567341	-5.02593027625358	0	0	45.16866763162	-10.0900716017319	0	59.88322050828358	1.045159364567341	-5.02593027625358	0	0	-14.28757823205362	11.79195724418762	35.61060747093514	-8.473642584663477	3.144759797338634	5.769970555791735	11.4439807951359	1.146192433765189	0	0	0	-13.01150157145833	0	88.87821945260139	1.146192433765189	0	0
1.62	-25.39781569630497	-13.8845519483409	-123.3210966647854	0	0.9399999998679526	0	45.16863993023485	-10.09002059536026	0	59.88323572912331	1.045159630221109	-5.02591117515023	0	0	45.16863993023485	-10.09002059536026	0	59.88323572912331	1.045159630221109	-5.02591117515023	0	0	-14.41810760488264	11.80307877175072	35.42262445757447	-8.441426732444899	2.796681077607438	5.824263574113746	11.73870551115495	1.146060930309464	0	0	0	-13.0116700039005	0	88.87834813446042	1.146060930309464	0	0
1.63	-25.40644833746475	-13.89698144771738	-123.255320204512	0	0.9399999998679526	0	45.16861357290639	-10.0899718264015	0	59.88325016278169	1.045159882135971	-5.025892891949979	0	0	45.16861357290639	-10.0899718264015	0	59.88325016278169	1.045159882135971	-5.025892891949979	0	0	-14.49367966873653	11.83699086871687	35.37147483262464	-8.370852417227193	2.593450672381875	5.768729290322463	11.89689166178695	1.145935972429688	0	0	0	-13.0118298804436	0	88.87847041118414	1.145935972429688	0	0
1.64	-25.37757757738888	-13.92149413669427	-123.1322286507553	0	0.9399999998679526	0	45.16858595402435	-10.08992065876703	0	59.8832652679893	1.045160145771578	-5.025873706529378	0	0	45.16858595402435	-10.08992065876703	0	59.8832652679893	1.045160145771578	-5.025873706529378	0	0	-14.50781937080714	11.84267820993379	35.42241314965165	-8.4051305555878	2.333568236074804	5.465405326265024	12.21311022186641	1.145805093800835	0	0	0	-13.01199726492209	0	88.87859848161699	1.145805093800835	0	0
1.65	-25.34698097835352	-13.91720544030356	-123.0974887537599	0	0.9399999998679526	0	45.16855091648582	-10.08985564843241	0	59.88328440103214	1.045160479706171	-5.025849326233363	0	0	45.16855091648582	-10.08985564843241	0	59.88328440103214	1.045160479706171	-5.025849326233363	0	0	-14.44926277435822	11.8657469150093	35.74508813319211	-8.524365494457001	2.193059663932791	5.015466153545537	12.58323142246616	1.145639152206919	0	0	0	-13.01220938939849	0	88.8787608626844	1.145639152206919	0	0
1.66	-25.26182958417814	-13.91008998364469	-122.9176628453459	0	0.9399999998679526	0	45.16852998260384	-10.08981709545253	0	59.88329589828928	1.045160680371163	-5.025834889840292	0	0	45.16852998260384	-10.08981709545253	0	59.88329589828928	1.045160680371163	-5.025834889840292	0	0	-14.42160487548285	11.86222154085732	35.76665950628372	-8.473955970366182	1.992303046467331	4.778578498308971	12.7948069661483	1.145539783496439	0	0	0	-13.01233665579107	0	88.87885809929567	1.145539783496439	0	0
1.67	-25.14007874431458	-13.89679414692966	-122.7177076569576	0	0.9399999998679526	0	45.16847194024107	-10.08970928962025	0	59.88332754846869	1.045161232771003	-5.025794460217659	0	0	45.16847194024107	-10.08970928962025	0	59.88332754846869	1.045161232771003	-5.025794460217659	0	0	-14.34996825944229	11.87240662460361	35.87504225983604	-8.566235507193658	1.723137468769303	4.369949933161251	13.19370262810709	1.145265017783455	0	0	0	-13.01268774255948	0	88.8791269694939	1.145265017783455	0	0
1.68	-24.95642710937913	-13.87479674461129	-122.4820811246723	0	0.9399999998679526	0	45.16842422540053	-10.08962113306672	0	59.88335365705395	1.045161688451779	-5.02576144141702	0	0	45.16842422540053	-10.08962113306672	0	59.88335365705395	1.045161688451779	-5.02576144141702	0	0	-14.27302338107338	11.79927789122941	35.67007824893797	-8.658385468091252	1.374743976643275	4.244245861643984	13.75307904709008	1.145038821002712	0	0	0	-13.01297710688578	0	88.87934831288852	1.145038821002712	0	0
1.69	-24.83460056193539	-13.83058156290286	-122.3933264326792	0	0.9399999998679526	0	45.16838746087418	-10.08955322076559	0	59.88337375449862	1.045162039218359	-5.02573601477347	0	0	45.16838746087418	-10.08955322076559	0	59.88337375449862	1.045162039218359	-5.02573601477347	0	0	-14.24400292730303	11.743046100236	35.6175324969816	-8.751688870419761	1.058355620921006	4.017085842863438	14.40444011149399	1.144864582385791	0	0	0	-13.01319993735204	0	88.87951881295731	1.144864582385791	0	0
1.7	-24.66576853142119	-13.77576943487415	-122.2057605032375	0	0.9399999998679526	0	45.1683328314577	-10.08945260988367	0	59.88340369757332	1.045162561823601	-5.025698364758648	0	0	45.1683328314577	-10.08945260988367	0	59.88340369757332	1.045162561823601	-5.025698364758648	0	0	-14.09933465123275	11.70156587421216	35.54076737172137	-8.975663265420629	0.8015659829593811	3.840881652850915	14.98303737496635	1.144605406811684	0	0	0	-13.01353169664755	0	88.87977242754233	1.144605406811684	0	0
1.71	-24.52064142284691	-13.74415279048903	-122.0513177681277	0	0.9399999998679526	0	45.168285767542	-10.08936630899282	0	59.88342956906066	1.045163013366238	-5.02566610267345	0	0	45.168285767542	-10.08936630899282	0	59.88342956906066	1.045163013366238	-5.02566610267345	0	0	-13.95861129303892	11.64243419600442	35.58752842654347	-9.257348281341915	0.5930373264709274	3.46152461532549	15.66687287223371	1.14438185712711	0	0	0	-13.01381813592102	0	88.87999118065021	1.14438185712711	0	0
1.72	-24.46973937574501	-13.77592992485232	-121.9142544682331	0	0.9399999998679526	0	45.16825466852484	-10.08930936689913	0	59.88344666720856	1.045163311785214	-5.02564482868057	0	0	45.16825466852484	-10.08930936689913	0	59.88344666720856	1.045163311785214	-5.02564482868057	0	0	-14.07243277240999	11.63630916633176	35.40690711854159	-9.430423119584047	0.3056011806520543	3.310480588321961	16.25300838940395	1.144234116672596	0	0	0	-13.01400745249161	0	88.88013575112353	1.144234116672596	0	0
1.73	-24.31743796355795	-13.7234040761276	-121.6832890881431	0	0.9399999998679526	0	45.16819467791447	-10.08919996667842	0	59.88347976196457	1.045163889397672	-5.025603985610283	0	0	45.16819467791447	-10.08919996667842	0	59.88347976196457	1.045163889397672	-5.025603985610283	0	0	-13.99568691855139	11.63023085504181	35.29491276078097	-9.59644005461762	0.1438021390990355	3.177118390256243	16.779036907045	1.143948742296445	0	0	0	-13.01437355858945	0	88.88041500239792	1.143948742296445	0	0
1.74	-24.14802362636631	-13.69668395528671	-121.4526467674392	0	0.9399999998679526	0	45.16816183357058	-10.0891406692712	0	59.88349801055828	1.045164207895716	-5.025581896224578	0	0	45.16816183357058	-10.0891406692712	0	59.88349801055828	1.045164207895716	-5.025581896224578	0	0	-13.9141655707663	11.56593905635171	35.19884929400037	-9.720022687318485	0.01072302476436493	3.034968300997293	17.15538105711892	1.143792056791023	0	0	0	-13.01457504602538	0	88.88056832601087	1.143792056791023	0	0
1.75	-23.99869222717029	-13.63125896102098	-121.3452117211857	0	0.9399999998679526	0	45.1680970375661	-10.08902198616287	0	59.88353359711455	1.045164828998292	-5.025537564196391	0	0	45.1680970375661	-10.08902198616287	0	59.88353359711455	1.045164828998292	-5.025537564196391	0	0	-13.80373829164341	11.52428406347651	35.11994496295669	-9.911856451718391	-0.1767210572208904	3.004072149457685	17.52266770520219	1.143484317715822	0	0	0	-13.01496929033777	0	88.88086946210635	1.143484317715822	0	0
1.76	-23.79463985218866	-13.54771150203973	-121.2228111632365	0	0.9399999998679526	0	45.16803144395378	-10.08890158845102	0	59.88356953468827	1.045165456227279	-5.025492584141048	0	0	45.16803144395378	-10.08890158845102	0	59.88356953468827	1.045165456227279	-5.025492584141048	0	0	-13.700421008363	11.43117238048033	34.94451499265395	-10.09783577051131	-0.3970528338289059	3.0521675414308	17.91873841372508	1.143173054198723	0	0	0	-13.01536774995034	0	88.88117404701526	1.143173054198723	0	0
